<svg xmlns="http://www.w3.org/2000/svg" version="1.0" preserveAspectRatio="xMidYMid meet" viewBox="348 21.62 652 707.56">  <g transform="translate(0.000000,759.000000) scale(0.100000,-0.100000)" fill="#1841bb" stroke="none"> <path d="M6552 7369 c-79 -4 -151 -11 -160 -14 -10 -4 -51 -13 -92 -20 -41 -7 -102 -21 -135 -30 -33 -9 -78 -20 -100 -26 -22 -6 -44 -14 -49 -20 -6 -5 -16 -9 -24 -9 -33 0 -197 -82 -373 -187 -59 -35 -109 -63 -112 -63 -3 0 -69 -38 -147 -85 -78 -47 -144 -85 -147 -85 -3 0 -61 -34 -130 -75 -68 -41 -127 -75 -130 -75 -3 0 -54 -29 -113 -65 -59 -36 -110 -65 -113 -65 -4 0 -51 -27 -105 -60 -55 -33 -105 -60 -111 -60 -6 0 -11 -4 -11 -10 0 -5 -5 -10 -11 -10 -6 0 -67 -34 -136 -75 -68 -41 -127 -75 -130 -75 -3 0 -61 -34 -130 -75 -68 -41 -126 -75 -129 -75 -12 0 -294 -173 -294 -180 0 -4 48 -36 108 -70 59 -35 119 -71 134 -81 15 -11 30 -19 34 -19 3 0 51 -27 106 -60 54 -33 101 -60 104 -60 3 0 69 -38 147 -84 218 -128 387 -226 392 -226 2 0 55 -31 118 -69 63 -38 124 -72 136 -76 11 -3 21 -10 21 -15 0 -5 10 -12 22 -16 11 -3 62 -31 112 -61 49 -30 99 -59 111 -64 11 -5 27 -13 35 -19 41 -27 252 -150 257 -150 3 0 54 -29 113 -65 59 -36 110 -65 113 -65 3 0 54 -29 114 -64 59 -34 162 -95 228 -133 66 -39 140 -82 165 -95 44 -24 108 -60 385 -223 77 -45 167 -97 200 -115 33 -18 68 -39 78 -48 16 -14 17 -117 17 -1884 0 -1654 2 -1868 15 -1868 8 0 15 4 15 8 0 5 21 19 48 32 26 13 98 54 160 92 62 37 115 68 119 68 3 0 61 34 130 75 68 41 127 75 130 75 3 0 54 29 113 65 59 36 110 65 113 65 4 0 51 27 105 60 55 33 105 60 111 60 6 0 11 4 11 8 0 5 21 19 48 32 26 13 87 48 135 77 48 29 90 53 93 53 4 0 50 27 104 59 53 32 107 62 119 66 11 3 21 11 21 16 0 5 5 9 11 9 6 0 67 34 136 75 68 41 127 75 130 75 17 0 396 238 413 259 3 4 19 17 35 30 50 38 157 143 215 212 30 35 57 66 61 69 14 12 180 255 201 297 61 116 115 225 127 254 7 19 19 48 26 64 17 40 50 140 63 190 6 22 18 65 26 95 44 161 46 219 46 1640 l0 1349 -84 50 c-46 28 -86 51 -89 51 -3 0 -73 41 -155 90 -83 50 -152 90 -155 90 -3 0 -62 34 -130 75 -69 41 -127 75 -130 75 -3 0 -62 34 -131 75 -69 41 -130 75 -136 75 -5 0 -10 5 -10 10 0 6 -5 10 -11 10 -6 0 -56 27 -111 60 -54 33 -101 60 -104 60 -4 0 -66 36 -139 80 -73 44 -135 80 -138 80 -3 0 -54 29 -114 64 -59 35 -169 98 -243 141 -74 43 -178 103 -230 133 -108 64 -153 88 -253 138 -40 20 -80 40 -89 45 -10 5 -23 9 -29 9 -6 0 -25 6 -42 14 -28 12 -88 31 -217 67 -155 42 -448 63 -708 48z m513 -884 c50 -9 112 -23 139 -31 26 -8 57 -14 67 -14 10 0 21 -4 24 -10 3 -5 14 -10 23 -10 9 0 30 -7 46 -15 15 -8 33 -15 38 -15 11 0 151 -69 208 -102 19 -11 72 -42 116 -69 45 -27 84 -49 87 -49 3 0 62 -34 130 -75 69 -41 127 -75 130 -75 3 0 62 -34 130 -75 69 -41 127 -75 130 -75 3 0 69 -38 148 -85 78 -47 144 -85 146 -85 3 0 54 -29 113 -65 59 -36 110 -65 113 -65 4 0 51 -27 105 -60 55 -33 105 -60 111 -60 6 0 11 -4 11 -9 0 -5 12 -14 28 -20 41 -18 74 -38 83 -53 12 -19 11 -1997 -1 -2050 -5 -24 -14 -65 -19 -93 -32 -163 -62 -251 -147 -430 -115 -240 -302 -479 -496 -632 -57 -46 -389 -253 -405 -253 -3 0 -49 -27 -103 -59 -53 -32 -107 -62 -119 -66 -11 -3 -21 -10 -21 -15 0 -5 -10 -12 -22 -16 -12 -3 -43 -20 -69 -35 -77 -48 -79 -45 -79 160 1 187 4 200 51 221 13 5 31 14 39 20 36 23 201 120 205 120 3 0 70 39 149 86 107 63 169 108 234 169 96 91 182 192 228 268 120 201 151 270 203 452 32 113 34 171 38 1055 l4 895 -50 33 c-27 17 -53 32 -56 32 -4 0 -67 36 -140 80 -73 44 -135 80 -138 80 -3 0 -65 35 -138 78 -74 43 -183 107 -244 142 -60 34 -163 94 -227 131 -64 38 -121 69 -127 69 -6 0 -11 4 -11 9 0 5 -10 13 -22 17 -11 3 -62 31 -112 61 -49 30 -99 59 -111 64 -11 5 -36 19 -55 30 -73 45 -137 76 -195 96 -134 46 -157 51 -315 74 -86 13 -372 6 -440 -10 -191 -45 -214 -52 -224 -62 -6 -5 -17 -9 -25 -9 -25 0 -189 -87 -354 -187 -48 -29 -90 -53 -93 -53 -4 0 -43 -22 -89 -50 -46 -27 -91 -50 -100 -50 -9 0 -56 23 -102 52 -47 28 -113 66 -147 84 -84 44 -83 64 4 111 36 19 113 64 171 99 59 35 109 64 113 64 3 0 46 25 96 55 140 85 306 175 324 175 6 1 29 9 51 20 22 11 48 19 57 20 9 0 20 5 23 10 3 6 14 10 24 10 10 0 41 6 67 14 49 14 209 43 274 50 90 9 431 -3 515 -19z m-85 -1255 c8 -4 38 -11 65 -15 54 -7 139 -31 167 -46 10 -5 23 -9 29 -9 15 0 153 -66 201 -97 21 -13 64 -37 95 -54 32 -17 110 -62 173 -99 63 -37 163 -95 222 -129 59 -34 112 -68 118 -76 18 -22 7 -841 -13 -935 -27 -131 -39 -175 -48 -184 -5 -6 -9 -16 -9 -24 0 -17 -17 -55 -81 -187 -65 -131 -139 -239 -167 -243 l-22 -3 0 690 0 690 -135 81 c-74 44 -137 80 -140 80 -2 0 -56 32 -120 70 -64 39 -118 70 -121 70 -5 0 -237 135 -294 171 -8 5 -22 12 -30 16 -8 4 -54 31 -102 60 -48 29 -118 69 -155 89 -77 41 -105 63 -100 78 7 22 424 27 467 6z"/> <path d="M3480 5166 l0 -455 75 -45 c42 -25 78 -46 81 -46 3 0 58 -31 122 -69 224 -132 407 -238 422 -244 15 -7 28 -15 166 -98 45 -27 84 -49 87 -49 3 0 62 -34 131 -75 69 -41 128 -75 130 -75 3 0 61 -34 129 -75 69 -41 130 -75 136 -75 6 0 11 -4 11 -9 0 -5 10 -13 21 -16 12 -4 66 -34 119 -66 54 -32 100 -59 103 -59 3 0 69 -38 147 -85 78 -47 144 -85 147 -85 3 0 54 -29 113 -65 59 -36 112 -65 117 -65 27 0 34 -49 31 -220 -3 -200 -4 -202 -81 -150 -25 16 -48 30 -52 30 -4 0 -67 36 -140 80 -73 44 -135 80 -138 80 -3 0 -62 34 -131 75 -69 41 -128 75 -130 75 -3 0 -61 34 -129 75 -69 41 -127 75 -130 75 -4 0 -51 27 -105 60 -55 33 -105 60 -111 60 -6 0 -11 4 -11 9 0 5 -10 13 -22 17 -12 3 -43 20 -69 35 -25 16 -56 29 -69 29 -18 0 -117 -52 -190 -100 -8 -6 -27 -15 -42 -21 -16 -6 -28 -15 -28 -20 0 -5 -5 -9 -11 -9 -6 0 -56 -27 -111 -60 -54 -33 -101 -60 -105 -60 -3 0 -53 -29 -112 -64 -58 -35 -121 -72 -140 -83 -19 -10 -36 -24 -38 -30 -3 -8 226 -153 242 -153 2 0 60 -34 128 -75 69 -41 127 -75 131 -75 3 0 47 -25 98 -56 51 -31 118 -70 148 -87 60 -32 168 -95 387 -223 78 -46 144 -84 147 -84 3 0 50 -27 104 -60 55 -33 105 -60 111 -60 6 0 11 -4 11 -9 0 -5 12 -14 28 -20 15 -7 36 -17 47 -24 11 -7 59 -34 105 -61 47 -27 128 -74 180 -104 52 -31 120 -69 150 -85 30 -17 60 -37 67 -46 9 -11 12 -69 13 -192 0 -209 0 -208 -94 -153 -33 19 -68 39 -76 43 -8 4 -69 39 -135 78 -66 39 -185 108 -265 154 -80 45 -193 111 -251 146 -59 35 -109 63 -112 63 -3 0 -62 34 -130 75 -69 41 -127 75 -130 75 -3 0 -68 37 -144 83 -76 45 -149 88 -163 95 -14 6 -32 16 -40 22 -55 36 -169 100 -179 100 -6 0 -11 4 -11 9 0 5 -9 13 -21 16 -11 4 -69 35 -127 70 -227 133 -370 215 -376 215 -11 0 -6 -72 9 -128 31 -113 47 -168 62 -212 14 -40 22 -60 53 -135 51 -123 190 -374 238 -430 5 -6 26 -35 47 -65 21 -30 41 -57 44 -60 4 -3 31 -34 61 -69 58 -68 165 -174 215 -212 17 -13 36 -29 44 -37 30 -29 388 -252 405 -252 3 0 58 -32 123 -71 65 -39 127 -75 138 -80 21 -10 33 -17 171 -100 45 -27 84 -49 87 -49 3 0 58 -31 122 -70 65 -38 126 -72 136 -75 11 -4 19 -11 19 -16 0 -5 5 -9 11 -9 6 0 56 -27 111 -60 54 -33 101 -60 105 -60 3 0 54 -29 113 -65 59 -36 110 -65 113 -65 3 0 62 -34 130 -75 69 -41 127 -75 130 -75 4 0 57 -31 120 -69 63 -38 130 -76 150 -86 20 -9 41 -23 48 -31 40 -49 39 -99 39 1759 0 1677 -1 1775 -17 1789 -20 17 -188 118 -196 118 -3 0 -54 29 -114 64 -59 35 -173 101 -253 147 -80 45 -193 111 -251 146 -59 35 -109 63 -112 63 -3 0 -62 34 -130 75 -69 41 -127 75 -130 75 -3 0 -62 34 -131 75 -69 41 -128 75 -131 75 -2 0 -56 32 -120 70 -64 39 -118 70 -121 70 -5 0 -237 135 -294 171 -8 5 -22 12 -30 16 -8 4 -66 37 -128 75 -62 37 -115 68 -119 68 -3 0 -54 29 -113 65 -59 36 -110 65 -113 65 -3 0 -62 34 -130 75 -69 41 -127 75 -131 75 -3 0 -36 19 -73 41 -93 57 -224 129 -234 129 -5 0 -9 -200 -9 -454z"/> </g> </svg>